<mxfile host="Electron" modified="2024-03-11T13:35:18.355Z" agent="Mozilla/5.0 (Windows NT 10.0; Win64; x64) AppleWebKit/537.36 (KHTML, like Gecko) draw.io/23.0.2 Chrome/120.0.6099.109 Electron/28.1.0 Safari/537.36" etag="DQgR_lKIpOfTz5oQ39o3" version="23.0.2" type="device">
  <diagram name="Страница — 1" id="47ALZbvbufMGlVsay3_U">
    <mxGraphModel dx="2023" dy="1115" grid="0" gridSize="10" guides="1" tooltips="1" connect="1" arrows="1" fold="1" page="1" pageScale="1" pageWidth="4681" pageHeight="3300" math="0" shadow="0">
      <root>
        <mxCell id="0" />
        <mxCell id="1" parent="0" />
        <mxCell id="OpHYf5UXYAO0MtJpZp1u-6" value="" style="edgeStyle=orthogonalEdgeStyle;rounded=0;orthogonalLoop=1;jettySize=auto;html=1;" edge="1" parent="1" source="OpHYf5UXYAO0MtJpZp1u-1" target="OpHYf5UXYAO0MtJpZp1u-5">
          <mxGeometry relative="1" as="geometry" />
        </mxCell>
        <mxCell id="OpHYf5UXYAO0MtJpZp1u-1" value="int main() {" style="ellipse;whiteSpace=wrap;html=1;" vertex="1" parent="1">
          <mxGeometry x="160" y="40" width="120" height="80" as="geometry" />
        </mxCell>
        <mxCell id="OpHYf5UXYAO0MtJpZp1u-2" value="" style="endArrow=none;html=1;rounded=0;" edge="1" parent="1">
          <mxGeometry width="50" height="50" relative="1" as="geometry">
            <mxPoint x="320" y="120" as="sourcePoint" />
            <mxPoint x="320" y="40" as="targetPoint" />
          </mxGeometry>
        </mxCell>
        <mxCell id="OpHYf5UXYAO0MtJpZp1u-3" value="" style="endArrow=none;dashed=1;html=1;dashPattern=1 3;strokeWidth=2;rounded=0;entryX=1;entryY=0.5;entryDx=0;entryDy=0;" edge="1" parent="1" target="OpHYf5UXYAO0MtJpZp1u-1">
          <mxGeometry width="50" height="50" relative="1" as="geometry">
            <mxPoint x="320" y="80" as="sourcePoint" />
            <mxPoint x="270" y="400" as="targetPoint" />
          </mxGeometry>
        </mxCell>
        <mxCell id="OpHYf5UXYAO0MtJpZp1u-4" value="#include &amp;lt;iostream&amp;gt;&lt;br&gt;#include &amp;lt;string&amp;gt;&lt;br&gt;#include &amp;lt;fstream&amp;gt;&lt;br&gt;using namespace std;&lt;br&gt;&lt;div style=&quot;&quot;&gt;&lt;span style=&quot;background-color: initial;&quot;&gt;string first_word = &quot;&quot;;&lt;/span&gt;&lt;/div&gt;" style="text;html=1;align=left;verticalAlign=middle;resizable=0;points=[];autosize=1;strokeColor=none;fillColor=none;" vertex="1" parent="1">
          <mxGeometry x="320" y="35" width="140" height="90" as="geometry" />
        </mxCell>
        <mxCell id="OpHYf5UXYAO0MtJpZp1u-8" value="" style="edgeStyle=orthogonalEdgeStyle;rounded=0;orthogonalLoop=1;jettySize=auto;html=1;" edge="1" parent="1" source="OpHYf5UXYAO0MtJpZp1u-5" target="OpHYf5UXYAO0MtJpZp1u-7">
          <mxGeometry relative="1" as="geometry" />
        </mxCell>
        <mxCell id="OpHYf5UXYAO0MtJpZp1u-5" value="ifstream fin;" style="whiteSpace=wrap;html=1;" vertex="1" parent="1">
          <mxGeometry x="160" y="140" width="120" height="30" as="geometry" />
        </mxCell>
        <mxCell id="OpHYf5UXYAO0MtJpZp1u-10" value="" style="edgeStyle=orthogonalEdgeStyle;rounded=0;orthogonalLoop=1;jettySize=auto;html=1;" edge="1" parent="1" source="OpHYf5UXYAO0MtJpZp1u-7" target="OpHYf5UXYAO0MtJpZp1u-9">
          <mxGeometry relative="1" as="geometry" />
        </mxCell>
        <mxCell id="OpHYf5UXYAO0MtJpZp1u-7" value="fin.open(&quot;f1.txt&quot;);" style="whiteSpace=wrap;html=1;" vertex="1" parent="1">
          <mxGeometry x="160" y="190" width="120" height="30" as="geometry" />
        </mxCell>
        <mxCell id="OpHYf5UXYAO0MtJpZp1u-12" value="" style="edgeStyle=orthogonalEdgeStyle;rounded=0;orthogonalLoop=1;jettySize=auto;html=1;" edge="1" parent="1" source="OpHYf5UXYAO0MtJpZp1u-9" target="OpHYf5UXYAO0MtJpZp1u-11">
          <mxGeometry relative="1" as="geometry" />
        </mxCell>
        <mxCell id="OpHYf5UXYAO0MtJpZp1u-9" value="string s;" style="whiteSpace=wrap;html=1;" vertex="1" parent="1">
          <mxGeometry x="160" y="240" width="120" height="30" as="geometry" />
        </mxCell>
        <mxCell id="OpHYf5UXYAO0MtJpZp1u-16" value="" style="edgeStyle=orthogonalEdgeStyle;rounded=0;orthogonalLoop=1;jettySize=auto;html=1;" edge="1" parent="1" source="OpHYf5UXYAO0MtJpZp1u-11" target="OpHYf5UXYAO0MtJpZp1u-15">
          <mxGeometry relative="1" as="geometry" />
        </mxCell>
        <mxCell id="OpHYf5UXYAO0MtJpZp1u-11" value="int k = 0;" style="whiteSpace=wrap;html=1;" vertex="1" parent="1">
          <mxGeometry x="160" y="290" width="120" height="30" as="geometry" />
        </mxCell>
        <mxCell id="OpHYf5UXYAO0MtJpZp1u-20" value="" style="edgeStyle=orthogonalEdgeStyle;rounded=0;orthogonalLoop=1;jettySize=auto;html=1;" edge="1" parent="1" source="OpHYf5UXYAO0MtJpZp1u-15" target="OpHYf5UXYAO0MtJpZp1u-19">
          <mxGeometry relative="1" as="geometry" />
        </mxCell>
        <mxCell id="OpHYf5UXYAO0MtJpZp1u-15" value="getline(fin, s);" style="shape=process;whiteSpace=wrap;html=1;backgroundOutline=1;" vertex="1" parent="1">
          <mxGeometry x="160" y="340" width="120" height="30" as="geometry" />
        </mxCell>
        <mxCell id="OpHYf5UXYAO0MtJpZp1u-22" value="" style="edgeStyle=orthogonalEdgeStyle;rounded=0;orthogonalLoop=1;jettySize=auto;html=1;" edge="1" parent="1" source="OpHYf5UXYAO0MtJpZp1u-19" target="OpHYf5UXYAO0MtJpZp1u-21">
          <mxGeometry relative="1" as="geometry" />
        </mxCell>
        <mxCell id="OpHYf5UXYAO0MtJpZp1u-19" value="ofstream fout;" style="whiteSpace=wrap;html=1;" vertex="1" parent="1">
          <mxGeometry x="160" y="390" width="120" height="30" as="geometry" />
        </mxCell>
        <mxCell id="OpHYf5UXYAO0MtJpZp1u-24" value="" style="edgeStyle=orthogonalEdgeStyle;rounded=0;orthogonalLoop=1;jettySize=auto;html=1;" edge="1" parent="1" source="OpHYf5UXYAO0MtJpZp1u-21" target="OpHYf5UXYAO0MtJpZp1u-23">
          <mxGeometry relative="1" as="geometry" />
        </mxCell>
        <mxCell id="OpHYf5UXYAO0MtJpZp1u-21" value="fout.open(&quot;f2.txt&quot;);" style="whiteSpace=wrap;html=1;" vertex="1" parent="1">
          <mxGeometry x="160" y="440" width="120" height="30" as="geometry" />
        </mxCell>
        <mxCell id="OpHYf5UXYAO0MtJpZp1u-26" value="" style="edgeStyle=orthogonalEdgeStyle;rounded=0;orthogonalLoop=1;jettySize=auto;html=1;" edge="1" parent="1" source="OpHYf5UXYAO0MtJpZp1u-23" target="OpHYf5UXYAO0MtJpZp1u-25">
          <mxGeometry relative="1" as="geometry" />
        </mxCell>
        <mxCell id="OpHYf5UXYAO0MtJpZp1u-31" value="" style="edgeStyle=orthogonalEdgeStyle;rounded=0;orthogonalLoop=1;jettySize=auto;html=1;" edge="1" parent="1" source="OpHYf5UXYAO0MtJpZp1u-23" target="OpHYf5UXYAO0MtJpZp1u-30">
          <mxGeometry relative="1" as="geometry" />
        </mxCell>
        <mxCell id="OpHYf5UXYAO0MtJpZp1u-23" value="while (s[k] != &#39; &#39;) {" style="rhombus;whiteSpace=wrap;html=1;" vertex="1" parent="1">
          <mxGeometry x="150" y="500" width="140" height="60" as="geometry" />
        </mxCell>
        <mxCell id="OpHYf5UXYAO0MtJpZp1u-28" value="" style="edgeStyle=orthogonalEdgeStyle;rounded=0;orthogonalLoop=1;jettySize=auto;html=1;" edge="1" parent="1" source="OpHYf5UXYAO0MtJpZp1u-25" target="OpHYf5UXYAO0MtJpZp1u-27">
          <mxGeometry relative="1" as="geometry" />
        </mxCell>
        <mxCell id="OpHYf5UXYAO0MtJpZp1u-25" value="first_word += s[k];" style="whiteSpace=wrap;html=1;" vertex="1" parent="1">
          <mxGeometry x="160" y="580" width="120" height="30" as="geometry" />
        </mxCell>
        <mxCell id="OpHYf5UXYAO0MtJpZp1u-29" style="edgeStyle=orthogonalEdgeStyle;rounded=0;orthogonalLoop=1;jettySize=auto;html=1;" edge="1" parent="1" source="OpHYf5UXYAO0MtJpZp1u-27">
          <mxGeometry relative="1" as="geometry">
            <mxPoint x="221" y="490" as="targetPoint" />
            <Array as="points">
              <mxPoint x="220" y="680" />
              <mxPoint x="140" y="680" />
              <mxPoint x="140" y="490" />
            </Array>
          </mxGeometry>
        </mxCell>
        <mxCell id="OpHYf5UXYAO0MtJpZp1u-27" value="k++;" style="whiteSpace=wrap;html=1;" vertex="1" parent="1">
          <mxGeometry x="160" y="620" width="120" height="30" as="geometry" />
        </mxCell>
        <mxCell id="OpHYf5UXYAO0MtJpZp1u-34" value="" style="edgeStyle=orthogonalEdgeStyle;rounded=0;orthogonalLoop=1;jettySize=auto;html=1;" edge="1" parent="1" source="OpHYf5UXYAO0MtJpZp1u-30" target="OpHYf5UXYAO0MtJpZp1u-33">
          <mxGeometry relative="1" as="geometry" />
        </mxCell>
        <mxCell id="OpHYf5UXYAO0MtJpZp1u-70" value="" style="edgeStyle=orthogonalEdgeStyle;rounded=0;orthogonalLoop=1;jettySize=auto;html=1;" edge="1" parent="1" source="OpHYf5UXYAO0MtJpZp1u-30" target="OpHYf5UXYAO0MtJpZp1u-69">
          <mxGeometry relative="1" as="geometry" />
        </mxCell>
        <mxCell id="OpHYf5UXYAO0MtJpZp1u-30" value="while (getline(fin, s)) {" style="rhombus;whiteSpace=wrap;html=1;" vertex="1" parent="1">
          <mxGeometry x="490" y="600" width="140" height="60" as="geometry" />
        </mxCell>
        <mxCell id="OpHYf5UXYAO0MtJpZp1u-32" value="}" style="text;html=1;align=center;verticalAlign=middle;resizable=0;points=[];autosize=1;strokeColor=none;fillColor=none;" vertex="1" parent="1">
          <mxGeometry x="215" y="648" width="30" height="30" as="geometry" />
        </mxCell>
        <mxCell id="OpHYf5UXYAO0MtJpZp1u-36" value="" style="edgeStyle=orthogonalEdgeStyle;rounded=0;orthogonalLoop=1;jettySize=auto;html=1;" edge="1" parent="1" source="OpHYf5UXYAO0MtJpZp1u-33" target="OpHYf5UXYAO0MtJpZp1u-35">
          <mxGeometry relative="1" as="geometry" />
        </mxCell>
        <mxCell id="OpHYf5UXYAO0MtJpZp1u-33" value="int i = 0;" style="whiteSpace=wrap;html=1;" vertex="1" parent="1">
          <mxGeometry x="500" y="678" width="120" height="22" as="geometry" />
        </mxCell>
        <mxCell id="OpHYf5UXYAO0MtJpZp1u-38" value="" style="edgeStyle=orthogonalEdgeStyle;rounded=0;orthogonalLoop=1;jettySize=auto;html=1;" edge="1" parent="1" source="OpHYf5UXYAO0MtJpZp1u-35" target="OpHYf5UXYAO0MtJpZp1u-37">
          <mxGeometry relative="1" as="geometry" />
        </mxCell>
        <mxCell id="OpHYf5UXYAO0MtJpZp1u-35" value="string word;" style="whiteSpace=wrap;html=1;" vertex="1" parent="1">
          <mxGeometry x="500" y="720" width="120" height="22" as="geometry" />
        </mxCell>
        <mxCell id="OpHYf5UXYAO0MtJpZp1u-40" value="" style="edgeStyle=orthogonalEdgeStyle;rounded=0;orthogonalLoop=1;jettySize=auto;html=1;" edge="1" parent="1" source="OpHYf5UXYAO0MtJpZp1u-37" target="OpHYf5UXYAO0MtJpZp1u-39">
          <mxGeometry relative="1" as="geometry" />
        </mxCell>
        <mxCell id="OpHYf5UXYAO0MtJpZp1u-37" value="bool flag = true;" style="whiteSpace=wrap;html=1;" vertex="1" parent="1">
          <mxGeometry x="500" y="760" width="120" height="22" as="geometry" />
        </mxCell>
        <mxCell id="OpHYf5UXYAO0MtJpZp1u-42" value="" style="edgeStyle=orthogonalEdgeStyle;rounded=0;orthogonalLoop=1;jettySize=auto;html=1;" edge="1" parent="1" source="OpHYf5UXYAO0MtJpZp1u-39" target="OpHYf5UXYAO0MtJpZp1u-41">
          <mxGeometry relative="1" as="geometry" />
        </mxCell>
        <mxCell id="OpHYf5UXYAO0MtJpZp1u-57" style="edgeStyle=orthogonalEdgeStyle;rounded=0;orthogonalLoop=1;jettySize=auto;html=1;" edge="1" parent="1" source="OpHYf5UXYAO0MtJpZp1u-39">
          <mxGeometry relative="1" as="geometry">
            <mxPoint x="560" y="570" as="targetPoint" />
            <Array as="points">
              <mxPoint x="920" y="857" />
              <mxPoint x="920" y="1410" />
              <mxPoint x="320" y="1410" />
              <mxPoint x="320" y="570" />
            </Array>
          </mxGeometry>
        </mxCell>
        <mxCell id="OpHYf5UXYAO0MtJpZp1u-39" value="while(s[i]) {" style="rhombus;whiteSpace=wrap;html=1;" vertex="1" parent="1">
          <mxGeometry x="490" y="833" width="140" height="47" as="geometry" />
        </mxCell>
        <mxCell id="OpHYf5UXYAO0MtJpZp1u-44" value="" style="edgeStyle=orthogonalEdgeStyle;rounded=0;orthogonalLoop=1;jettySize=auto;html=1;" edge="1" parent="1" source="OpHYf5UXYAO0MtJpZp1u-41" target="OpHYf5UXYAO0MtJpZp1u-43">
          <mxGeometry relative="1" as="geometry" />
        </mxCell>
        <mxCell id="OpHYf5UXYAO0MtJpZp1u-46" value="" style="edgeStyle=orthogonalEdgeStyle;rounded=0;orthogonalLoop=1;jettySize=auto;html=1;" edge="1" parent="1" source="OpHYf5UXYAO0MtJpZp1u-41" target="OpHYf5UXYAO0MtJpZp1u-45">
          <mxGeometry relative="1" as="geometry" />
        </mxCell>
        <mxCell id="OpHYf5UXYAO0MtJpZp1u-41" value="if (s[i] != &#39; &#39;) {" style="rhombus;whiteSpace=wrap;html=1;" vertex="1" parent="1">
          <mxGeometry x="490" y="910" width="140" height="47" as="geometry" />
        </mxCell>
        <mxCell id="OpHYf5UXYAO0MtJpZp1u-53" style="edgeStyle=orthogonalEdgeStyle;rounded=0;orthogonalLoop=1;jettySize=auto;html=1;exitX=0.5;exitY=1;exitDx=0;exitDy=0;entryX=0.5;entryY=0;entryDx=0;entryDy=0;" edge="1" parent="1" source="OpHYf5UXYAO0MtJpZp1u-43" target="OpHYf5UXYAO0MtJpZp1u-52">
          <mxGeometry relative="1" as="geometry">
            <Array as="points">
              <mxPoint x="425" y="1160" />
              <mxPoint x="560" y="1160" />
            </Array>
          </mxGeometry>
        </mxCell>
        <mxCell id="OpHYf5UXYAO0MtJpZp1u-43" value="word += s[i];" style="whiteSpace=wrap;html=1;" vertex="1" parent="1">
          <mxGeometry x="380" y="1040" width="90" height="20" as="geometry" />
        </mxCell>
        <mxCell id="OpHYf5UXYAO0MtJpZp1u-48" value="" style="edgeStyle=orthogonalEdgeStyle;rounded=0;orthogonalLoop=1;jettySize=auto;html=1;" edge="1" parent="1" source="OpHYf5UXYAO0MtJpZp1u-45" target="OpHYf5UXYAO0MtJpZp1u-47">
          <mxGeometry relative="1" as="geometry" />
        </mxCell>
        <mxCell id="OpHYf5UXYAO0MtJpZp1u-51" style="edgeStyle=orthogonalEdgeStyle;rounded=0;orthogonalLoop=1;jettySize=auto;html=1;exitX=1;exitY=0.5;exitDx=0;exitDy=0;entryX=0.5;entryY=0;entryDx=0;entryDy=0;" edge="1" parent="1" source="OpHYf5UXYAO0MtJpZp1u-45" target="OpHYf5UXYAO0MtJpZp1u-49">
          <mxGeometry relative="1" as="geometry">
            <Array as="points">
              <mxPoint x="900" y="1000" />
              <mxPoint x="900" y="1080" />
              <mxPoint x="775" y="1080" />
            </Array>
          </mxGeometry>
        </mxCell>
        <mxCell id="OpHYf5UXYAO0MtJpZp1u-45" value="if(word == first_word) {" style="rhombus;whiteSpace=wrap;html=1;" vertex="1" parent="1">
          <mxGeometry x="690" y="970" width="170" height="60" as="geometry" />
        </mxCell>
        <mxCell id="OpHYf5UXYAO0MtJpZp1u-50" style="edgeStyle=orthogonalEdgeStyle;rounded=0;orthogonalLoop=1;jettySize=auto;html=1;exitX=0.5;exitY=1;exitDx=0;exitDy=0;" edge="1" parent="1" source="OpHYf5UXYAO0MtJpZp1u-47" target="OpHYf5UXYAO0MtJpZp1u-49">
          <mxGeometry relative="1" as="geometry">
            <Array as="points">
              <mxPoint x="640" y="1080" />
              <mxPoint x="775" y="1080" />
            </Array>
          </mxGeometry>
        </mxCell>
        <mxCell id="OpHYf5UXYAO0MtJpZp1u-47" value="flag = false;" style="whiteSpace=wrap;html=1;" vertex="1" parent="1">
          <mxGeometry x="600" y="1040" width="80" height="20" as="geometry" />
        </mxCell>
        <mxCell id="OpHYf5UXYAO0MtJpZp1u-54" style="edgeStyle=orthogonalEdgeStyle;rounded=0;orthogonalLoop=1;jettySize=auto;html=1;exitX=0.5;exitY=1;exitDx=0;exitDy=0;entryX=0.5;entryY=0;entryDx=0;entryDy=0;" edge="1" parent="1" source="OpHYf5UXYAO0MtJpZp1u-49" target="OpHYf5UXYAO0MtJpZp1u-52">
          <mxGeometry relative="1" as="geometry">
            <Array as="points">
              <mxPoint x="775" y="1160" />
              <mxPoint x="560" y="1160" />
            </Array>
          </mxGeometry>
        </mxCell>
        <mxCell id="OpHYf5UXYAO0MtJpZp1u-49" value="word = &quot;&quot;;" style="rounded=0;whiteSpace=wrap;html=1;" vertex="1" parent="1">
          <mxGeometry x="735" y="1110" width="80" height="20" as="geometry" />
        </mxCell>
        <mxCell id="OpHYf5UXYAO0MtJpZp1u-62" value="" style="edgeStyle=orthogonalEdgeStyle;rounded=0;orthogonalLoop=1;jettySize=auto;html=1;" edge="1" parent="1" source="OpHYf5UXYAO0MtJpZp1u-52" target="OpHYf5UXYAO0MtJpZp1u-61">
          <mxGeometry relative="1" as="geometry" />
        </mxCell>
        <mxCell id="OpHYf5UXYAO0MtJpZp1u-52" value="i++;" style="rounded=0;whiteSpace=wrap;html=1;" vertex="1" parent="1">
          <mxGeometry x="520" y="1200" width="80" height="20" as="geometry" />
        </mxCell>
        <mxCell id="OpHYf5UXYAO0MtJpZp1u-58" value="}" style="text;html=1;align=center;verticalAlign=middle;resizable=0;points=[];autosize=1;strokeColor=none;fillColor=none;" vertex="1" parent="1">
          <mxGeometry x="560" y="1350" width="30" height="30" as="geometry" />
        </mxCell>
        <mxCell id="OpHYf5UXYAO0MtJpZp1u-59" value="}" style="text;html=1;align=center;verticalAlign=middle;resizable=0;points=[];autosize=1;strokeColor=none;fillColor=none;" vertex="1" parent="1">
          <mxGeometry x="425" y="1058" width="30" height="30" as="geometry" />
        </mxCell>
        <mxCell id="OpHYf5UXYAO0MtJpZp1u-60" value="}" style="text;html=1;align=center;verticalAlign=middle;resizable=0;points=[];autosize=1;strokeColor=none;fillColor=none;" vertex="1" parent="1">
          <mxGeometry x="775" y="1128" width="30" height="30" as="geometry" />
        </mxCell>
        <mxCell id="OpHYf5UXYAO0MtJpZp1u-64" value="" style="edgeStyle=orthogonalEdgeStyle;rounded=0;orthogonalLoop=1;jettySize=auto;html=1;" edge="1" parent="1" source="OpHYf5UXYAO0MtJpZp1u-61" target="OpHYf5UXYAO0MtJpZp1u-63">
          <mxGeometry relative="1" as="geometry" />
        </mxCell>
        <mxCell id="OpHYf5UXYAO0MtJpZp1u-68" style="edgeStyle=orthogonalEdgeStyle;rounded=0;orthogonalLoop=1;jettySize=auto;html=1;exitX=1;exitY=0.5;exitDx=0;exitDy=0;" edge="1" parent="1" source="OpHYf5UXYAO0MtJpZp1u-61">
          <mxGeometry relative="1" as="geometry">
            <mxPoint x="560" y="1380" as="targetPoint" />
            <Array as="points">
              <mxPoint x="640" y="1260" />
              <mxPoint x="640" y="1350" />
              <mxPoint x="560" y="1350" />
            </Array>
          </mxGeometry>
        </mxCell>
        <mxCell id="OpHYf5UXYAO0MtJpZp1u-61" value="if (flag) {" style="rhombus;whiteSpace=wrap;html=1;rounded=0;" vertex="1" parent="1">
          <mxGeometry x="520" y="1240" width="80" height="40" as="geometry" />
        </mxCell>
        <mxCell id="OpHYf5UXYAO0MtJpZp1u-66" value="" style="edgeStyle=orthogonalEdgeStyle;rounded=0;orthogonalLoop=1;jettySize=auto;html=1;" edge="1" parent="1" source="OpHYf5UXYAO0MtJpZp1u-63" target="OpHYf5UXYAO0MtJpZp1u-65">
          <mxGeometry relative="1" as="geometry" />
        </mxCell>
        <mxCell id="OpHYf5UXYAO0MtJpZp1u-63" value="cout&amp;lt;&amp;lt;s&amp;lt;&amp;lt;endl;" style="shape=parallelogram;perimeter=parallelogramPerimeter;whiteSpace=wrap;html=1;fixedSize=1;rounded=0;" vertex="1" parent="1">
          <mxGeometry x="380" y="1290" width="120" height="20" as="geometry" />
        </mxCell>
        <mxCell id="OpHYf5UXYAO0MtJpZp1u-67" style="edgeStyle=orthogonalEdgeStyle;rounded=0;orthogonalLoop=1;jettySize=auto;html=1;" edge="1" parent="1" source="OpHYf5UXYAO0MtJpZp1u-65">
          <mxGeometry relative="1" as="geometry">
            <mxPoint x="560" y="820" as="targetPoint" />
            <Array as="points">
              <mxPoint x="440" y="1350" />
              <mxPoint x="560" y="1350" />
              <mxPoint x="560" y="1380" />
              <mxPoint x="360" y="1380" />
              <mxPoint x="360" y="820" />
            </Array>
          </mxGeometry>
        </mxCell>
        <mxCell id="OpHYf5UXYAO0MtJpZp1u-65" value="fout&amp;lt;&amp;lt;s&amp;lt;&amp;lt;endl;" style="shape=parallelogram;perimeter=parallelogramPerimeter;whiteSpace=wrap;html=1;fixedSize=1;rounded=0;" vertex="1" parent="1">
          <mxGeometry x="380" y="1320" width="120" height="20" as="geometry" />
        </mxCell>
        <mxCell id="OpHYf5UXYAO0MtJpZp1u-72" value="" style="edgeStyle=orthogonalEdgeStyle;rounded=0;orthogonalLoop=1;jettySize=auto;html=1;" edge="1" parent="1" source="OpHYf5UXYAO0MtJpZp1u-69" target="OpHYf5UXYAO0MtJpZp1u-71">
          <mxGeometry relative="1" as="geometry" />
        </mxCell>
        <mxCell id="OpHYf5UXYAO0MtJpZp1u-69" value="iifstream f;" style="whiteSpace=wrap;html=1;" vertex="1" parent="1">
          <mxGeometry x="1312" y="1251" width="120" height="22" as="geometry" />
        </mxCell>
        <mxCell id="OpHYf5UXYAO0MtJpZp1u-74" value="" style="edgeStyle=orthogonalEdgeStyle;rounded=0;orthogonalLoop=1;jettySize=auto;html=1;" edge="1" parent="1" source="OpHYf5UXYAO0MtJpZp1u-71" target="OpHYf5UXYAO0MtJpZp1u-73">
          <mxGeometry relative="1" as="geometry" />
        </mxCell>
        <mxCell id="OpHYf5UXYAO0MtJpZp1u-71" value="f.open(&quot;f2.txt&quot;);" style="whiteSpace=wrap;html=1;" vertex="1" parent="1">
          <mxGeometry x="1312" y="1293" width="120" height="22" as="geometry" />
        </mxCell>
        <mxCell id="OpHYf5UXYAO0MtJpZp1u-76" value="" style="edgeStyle=orthogonalEdgeStyle;rounded=0;orthogonalLoop=1;jettySize=auto;html=1;" edge="1" parent="1" source="OpHYf5UXYAO0MtJpZp1u-73" target="OpHYf5UXYAO0MtJpZp1u-75">
          <mxGeometry relative="1" as="geometry" />
        </mxCell>
        <mxCell id="OpHYf5UXYAO0MtJpZp1u-73" value="int count = 0;" style="whiteSpace=wrap;html=1;" vertex="1" parent="1">
          <mxGeometry x="1312" y="1333" width="120" height="22" as="geometry" />
        </mxCell>
        <mxCell id="OpHYf5UXYAO0MtJpZp1u-78" value="" style="edgeStyle=orthogonalEdgeStyle;rounded=0;orthogonalLoop=1;jettySize=auto;html=1;" edge="1" parent="1" source="OpHYf5UXYAO0MtJpZp1u-75" target="OpHYf5UXYAO0MtJpZp1u-77">
          <mxGeometry relative="1" as="geometry" />
        </mxCell>
        <mxCell id="OpHYf5UXYAO0MtJpZp1u-75" value="string d;" style="whiteSpace=wrap;html=1;" vertex="1" parent="1">
          <mxGeometry x="1312" y="1373" width="120" height="22" as="geometry" />
        </mxCell>
        <mxCell id="OpHYf5UXYAO0MtJpZp1u-80" value="" style="edgeStyle=orthogonalEdgeStyle;rounded=0;orthogonalLoop=1;jettySize=auto;html=1;" edge="1" parent="1" source="OpHYf5UXYAO0MtJpZp1u-77" target="OpHYf5UXYAO0MtJpZp1u-79">
          <mxGeometry relative="1" as="geometry" />
        </mxCell>
        <mxCell id="OpHYf5UXYAO0MtJpZp1u-77" value="getline(f, d);" style="shape=process;whiteSpace=wrap;html=1;backgroundOutline=1;" vertex="1" parent="1">
          <mxGeometry x="1312" y="1414.5" width="120" height="30" as="geometry" />
        </mxCell>
        <mxCell id="OpHYf5UXYAO0MtJpZp1u-82" value="" style="edgeStyle=orthogonalEdgeStyle;rounded=0;orthogonalLoop=1;jettySize=auto;html=1;" edge="1" parent="1" source="OpHYf5UXYAO0MtJpZp1u-79" target="OpHYf5UXYAO0MtJpZp1u-81">
          <mxGeometry relative="1" as="geometry" />
        </mxCell>
        <mxCell id="OpHYf5UXYAO0MtJpZp1u-89" value="" style="edgeStyle=orthogonalEdgeStyle;rounded=0;orthogonalLoop=1;jettySize=auto;html=1;" edge="1" parent="1" source="OpHYf5UXYAO0MtJpZp1u-79" target="OpHYf5UXYAO0MtJpZp1u-88">
          <mxGeometry relative="1" as="geometry" />
        </mxCell>
        <mxCell id="OpHYf5UXYAO0MtJpZp1u-79" value="for(int i = 0; i &amp;lt; d.length(); i++) {" style="shape=hexagon;perimeter=hexagonPerimeter2;whiteSpace=wrap;html=1;fixedSize=1;" vertex="1" parent="1">
          <mxGeometry x="1262" y="1466.5" width="220" height="36.5" as="geometry" />
        </mxCell>
        <mxCell id="OpHYf5UXYAO0MtJpZp1u-84" value="" style="edgeStyle=orthogonalEdgeStyle;rounded=0;orthogonalLoop=1;jettySize=auto;html=1;" edge="1" parent="1" source="OpHYf5UXYAO0MtJpZp1u-81" target="OpHYf5UXYAO0MtJpZp1u-83">
          <mxGeometry relative="1" as="geometry" />
        </mxCell>
        <mxCell id="OpHYf5UXYAO0MtJpZp1u-86" style="edgeStyle=orthogonalEdgeStyle;rounded=0;orthogonalLoop=1;jettySize=auto;html=1;exitX=1;exitY=0.5;exitDx=0;exitDy=0;" edge="1" parent="1" source="OpHYf5UXYAO0MtJpZp1u-81">
          <mxGeometry relative="1" as="geometry">
            <mxPoint x="1372" y="1863" as="targetPoint" />
            <Array as="points">
              <mxPoint x="1572" y="1628" />
              <mxPoint x="1572" y="1833" />
              <mxPoint x="1373" y="1833" />
              <mxPoint x="1373" y="1863" />
            </Array>
          </mxGeometry>
        </mxCell>
        <mxCell id="OpHYf5UXYAO0MtJpZp1u-81" value="if (d[i] != &#39;a&#39; &amp;amp;&amp;amp; d[i] != &#39;A&#39;&lt;br&gt;&amp;nbsp; &amp;amp;&amp;amp; d[i] != &#39;e&#39; &amp;amp;&amp;amp; d[i] != &#39;E&#39;&lt;br&gt;&amp;amp;&amp;amp; d[i] != &#39;i&#39; &amp;amp;&amp;amp; d[i] != &#39;I&#39;&amp;nbsp;&lt;br&gt;&amp;nbsp; &amp;nbsp;&amp;amp;&amp;amp; d[i] != &#39;o&#39; &amp;amp;&amp;amp; d[i] != &#39;O&#39;&amp;nbsp;&lt;br&gt;&amp;nbsp; &amp;amp;&amp;amp; d[i] != &#39;u&#39; &amp;amp;&amp;amp; d[i] != &#39;U&#39;&lt;br&gt;&amp;nbsp; &amp;amp;&amp;amp; d[i] != &#39;Y&#39; &amp;amp;&amp;amp; d[i] != &#39;Y&#39;&lt;br&gt;&amp;nbsp; &amp;nbsp; &amp;nbsp; &amp;nbsp; &amp;nbsp;&amp;amp;&amp;amp; isalpha(d[i])) {" style="rhombus;whiteSpace=wrap;html=1;" vertex="1" parent="1">
          <mxGeometry x="1217" y="1543" width="310" height="170" as="geometry" />
        </mxCell>
        <mxCell id="OpHYf5UXYAO0MtJpZp1u-85" style="edgeStyle=orthogonalEdgeStyle;rounded=0;orthogonalLoop=1;jettySize=auto;html=1;entryX=0;entryY=0.5;entryDx=0;entryDy=0;" edge="1" parent="1" source="OpHYf5UXYAO0MtJpZp1u-83" target="OpHYf5UXYAO0MtJpZp1u-79">
          <mxGeometry relative="1" as="geometry">
            <mxPoint x="1082" y="1483" as="targetPoint" />
            <Array as="points">
              <mxPoint x="1142" y="1833" />
              <mxPoint x="1373" y="1833" />
              <mxPoint x="1373" y="1863" />
              <mxPoint x="1082" y="1863" />
              <mxPoint x="1082" y="1485" />
            </Array>
          </mxGeometry>
        </mxCell>
        <mxCell id="OpHYf5UXYAO0MtJpZp1u-83" value="count++;" style="whiteSpace=wrap;html=1;" vertex="1" parent="1">
          <mxGeometry x="1102" y="1743" width="80" height="30" as="geometry" />
        </mxCell>
        <mxCell id="OpHYf5UXYAO0MtJpZp1u-87" value="}" style="text;html=1;align=center;verticalAlign=middle;resizable=0;points=[];autosize=1;strokeColor=none;fillColor=none;" vertex="1" parent="1">
          <mxGeometry x="1147" y="1781" width="30" height="30" as="geometry" />
        </mxCell>
        <mxCell id="OpHYf5UXYAO0MtJpZp1u-91" value="" style="edgeStyle=orthogonalEdgeStyle;rounded=0;orthogonalLoop=1;jettySize=auto;html=1;" edge="1" parent="1" source="OpHYf5UXYAO0MtJpZp1u-88" target="OpHYf5UXYAO0MtJpZp1u-90">
          <mxGeometry relative="1" as="geometry" />
        </mxCell>
        <mxCell id="OpHYf5UXYAO0MtJpZp1u-88" value="cout&amp;lt;&amp;lt;d&amp;lt;&amp;lt;endl;" style="shape=parallelogram;perimeter=parallelogramPerimeter;whiteSpace=wrap;html=1;fixedSize=1;" vertex="1" parent="1">
          <mxGeometry x="1782" y="1553" width="120" height="30" as="geometry" />
        </mxCell>
        <mxCell id="OpHYf5UXYAO0MtJpZp1u-93" value="" style="edgeStyle=orthogonalEdgeStyle;rounded=0;orthogonalLoop=1;jettySize=auto;html=1;" edge="1" parent="1" source="OpHYf5UXYAO0MtJpZp1u-90" target="OpHYf5UXYAO0MtJpZp1u-92">
          <mxGeometry relative="1" as="geometry" />
        </mxCell>
        <mxCell id="OpHYf5UXYAO0MtJpZp1u-90" value="cout&amp;lt;&amp;lt;&quot;Number of consonants is: &quot;&amp;lt;&amp;lt;count&amp;lt;&amp;lt;endl;" style="shape=parallelogram;perimeter=parallelogramPerimeter;whiteSpace=wrap;html=1;fixedSize=1;" vertex="1" parent="1">
          <mxGeometry x="1652" y="1608" width="380" height="30" as="geometry" />
        </mxCell>
        <mxCell id="OpHYf5UXYAO0MtJpZp1u-92" value="retrun 0;" style="ellipse;whiteSpace=wrap;html=1;" vertex="1" parent="1">
          <mxGeometry x="1802" y="1693" width="80" height="50" as="geometry" />
        </mxCell>
      </root>
    </mxGraphModel>
  </diagram>
</mxfile>
